<?xml version="1.0" encoding="UTF-8" standalone="no"?>
<!-- Uploaded to: SVG Repo, www.svgrepo.com, Generator: SVG Repo Mixer Tools -->

<svg
   width="800px"
   height="800px"
   viewBox="0 0 24 24"
   version="1.1"
   id="svg3"
   sodipodi:docname="golang.svg"
   inkscape:version="1.3.2 (091e20e, 2023-11-25)"
   xmlns:inkscape="http://www.inkscape.org/namespaces/inkscape"
   xmlns:sodipodi="http://sodipodi.sourceforge.net/DTD/sodipodi-0.dtd"
   xmlns="http://www.w3.org/2000/svg"
   xmlns:svg="http://www.w3.org/2000/svg">
  <defs
     id="defs3" />
  <sodipodi:namedview
     id="namedview3"
     pagecolor="#ffffff"
     bordercolor="#000000"
     borderopacity="0.25"
     inkscape:showpageshadow="2"
     inkscape:pageopacity="0.0"
     inkscape:pagecheckerboard="0"
     inkscape:deskcolor="#d1d1d1"
     inkscape:zoom="0.47654856"
     inkscape:cx="302.17277"
     inkscape:cy="240.26932"
     inkscape:window-width="1440"
     inkscape:window-height="900"
     inkscape:window-x="0"
     inkscape:window-y="0"
     inkscape:window-maximized="0"
     inkscape:current-layer="g3" />
  <g
     fill="none"
     id="g3"
     inkscape:label="g3">
    <path
       style="fill:#ffffff;stroke-width:3.38983"
       d="m 265.24735,312.30659 c -33.12129,-12.32473 -53.38294,-42.13195 -53.38294,-78.53243 0,-40.35341 28.73103,-80.06705 66.54933,-91.98822 16.67265,-5.25559 19.17972,-5.23788 39.56242,0.27946 40.43519,10.94529 60.98695,36.851 60.98695,76.87469 0,50.45867 -36.12647,91.70139 -84.5051,96.47274 -9.791,0.96564 -21.65973,-0.29647 -29.21066,-3.10624 z m 46.21909,-49.44342 c 17.8764,-6.79659 25.94518,-33.46109 15.83944,-52.34382 -2.50719,-4.68473 -9.89613,-11.05054 -16.41987,-14.14626 -9.80948,-4.6549 -14.09114,-4.96052 -24.75115,-1.76671 -28.37426,8.50114 -36.17098,39.08632 -15.2874,59.96989 12.15837,12.15837 24.05337,14.58513 40.61898,8.2869 z"
       id="path7"
       transform="scale(0.03)"
       inkscape:label="path7" />
    <path
       style="display:inline;fill:#ffffff;stroke-width:1.52614"
       d="m 389.1652,793.47611 c -3.3575,-0.32683 -15.71922,-1.33697 -27.47049,-2.24472 -27.53665,-2.12714 -58.42683,-6.62476 -78.34531,-11.40713 -12.36685,-2.96924 -18.44614,-5.43186 -28.14744,-11.4021 -6.80558,-4.18818 -14.8162,-8.04958 -17.80138,-8.58089 -7.00864,-1.24742 -18.19374,-9.83512 -33.18301,-25.47727 -36.69742,-38.29586 -56.11497,-92.27809 -59.46758,-165.32423 l -0.99026,-21.57566 4.61692,-1.01404 c 5.66598,-1.24446 10.15579,-5.84241 13.48461,-13.80941 5.42016,-12.97227 -1.46704,-40.59543 -11.40254,-45.73326 -2.59189,-1.34033 -4.71254,-3.07281 -4.71254,-3.84996 0,-0.77714 1.67415,-21.53407 3.72033,-46.12649 5.96103,-71.6439 6.09715,-78.33297 2.43152,-119.49424 -4.45252,-49.99738 -5.6057,-93.55536 -3.13681,-118.48371 1.61825,-16.33941 1.61131,-20.50595 -0.0393,-23.59017 -1.10259,-2.0602 -8.91911,-8.27269 -17.37006,-13.80557 -8.45095,-5.53286 -17.31685,-11.86887 -19.70201,-14.08002 -10.71243,-9.9309 -12.973429,-23.85108 -6.2304,-38.35837 9.54412,-20.533684 21.97419,-25.239903 52.53585,-19.890888 26.80786,4.692012 25.44308,4.997941 40.63155,-9.108021 24.99821,-23.216543 49.7329,-39.580528 79.59508,-52.65854 80.12408,-35.0899874 194.69506,-32.9271345 274.28005,5.177814 26.79581,12.829722 47.63657,27.087676 71.37691,48.831692 13.67192,12.522241 12.41077,12.269184 38.72556,7.770448 19.7005,-3.367968 28.10262,-2.964134 37.57183,1.805836 11.16419,5.623782 20.53273,24.088499 19.02206,37.491129 -1.22085,10.83131 -7.47603,18.03584 -27.12701,31.24413 -9.61307,6.46136 -18.39738,13.12264 -19.52069,14.80282 -1.69543,2.53591 -1.71672,7.79959 -0.12537,30.98436 2.05402,29.9256 0.85541,63.92478 -4.15902,117.97161 -2.76182,29.76774 -2.22821,54.18837 2.36768,108.3558 4.62516,54.51233 4.6179,52.41993 0.18956,54.63016 -8.36661,4.17585 -13.78105,18.21565 -13.78105,35.73455 0,10.82513 5.2591,20.68111 12.3553,23.15486 2.63055,0.91701 5.50118,1.22334 6.37917,0.6807 1.81293,-1.12044 0.59042,29.30225 -2.09556,52.14878 -7.51279,63.90286 -31.99105,115.9658 -69.618,148.07086 -8.77408,7.48644 -12.73129,9.89256 -16.31155,9.91794 -5.95385,0.0422 -13.23444,3.3726 -31.02631,14.19247 -18.66821,11.35279 -34.04083,15.12083 -82.05655,20.11318 -22.5489,2.34446 -73.54285,4.09604 -85.46373,2.93555 z m 43.55313,-398.58789 c 5.63526,-5.04839 8.17706,-14.31814 6.00387,-21.89561 -0.81601,-2.84526 -1.48365,-5.26164 -1.48365,-5.36975 0,-0.10811 2.74512,-0.63551 6.10026,-1.17203 9.47927,-1.51579 21.8192,-7.61378 26.38308,-13.03766 10.98408,-13.05382 -0.17877,-33.14979 -25.61572,-46.11479 -5.03626,-2.56694 -11.4656,-6.07965 -14.28745,-7.806 -3.48605,-2.13273 -8.70553,-3.36828 -16.28343,-3.8546 -14.03933,-0.90098 -20.85167,0.36351 -26.23283,4.86927 -2.333,1.95347 -8.56498,5.29262 -13.84887,7.42031 -17.92588,7.21837 -25.46674,14.76246 -27.16883,27.18046 -1.84352,13.4501 6.7771,23.98079 24.08024,29.4157 l 8.11723,2.54961 -0.50457,9.73928 c -0.35089,6.77262 0.23866,11.17656 1.93543,14.45773 3.18258,6.15446 7.73812,7.19338 33.2647,7.5863 14.20488,0.21865 15.06103,0.0448 19.54054,-3.96822 z M 309.04295,315.93273 c 20.80993,-5.53066 23.57998,-34.27757 34.2063,-50.28679 19.69454,-29.67108 29.36596,-33.77016 15.07026,-63.43265 -5.38489,-11.17322 -12.6124,-27.39331 -24.69111,-33.49062 -12.99867,-6.56171 -22.89914,-7.8102 -36.85064,-7.85996 -21.14807,-0.0754 -31.23456,0.91493 -49.45796,20.22576 -12.6604,13.41588 -11.39465,24.81738 -16.0974,43.20495 -7.8793,30.80781 -3.88522,34.34465 17.46397,56.9759 15.87365,16.82691 22.59695,15.35342 45.0952,15.46434 7.1347,0.0352 10.64482,20.42603 15.26138,19.19907 z m 242.65595,-25.3336 c 31.2695,-7.20169 23.97659,-9.82894 29.16339,-44.70246 3.1678,-21.29878 3.03609,-27.04982 -11.37788,-47.24917 -22.56006,-31.61511 -31.74083,-42.19543 -66.23427,-33.72948 -40.95955,10.05297 -36.10973,19.9727 -36.03606,60.95041 0.0821,45.65127 4.90735,51.90202 47.09444,66.65501 13.36723,4.67458 23.95437,1.17015 37.39038,-1.92431 z M 154.15628,138.49703 c 0.46066,-2.30829 2.92173,-8.31748 5.46905,-13.35376 5.18895,-10.25903 4.84471,-13.3259 -1.80491,-16.08026 -10.82683,-4.48463 -24.28334,3.28645 -24.28334,14.02353 0,4.30869 1.23244,7.16959 4.87651,11.31995 7.81849,8.90478 14.43864,10.62493 15.74269,4.09054 z m 522.31835,1.15284 c 5.88919,-3.59067 11.03687,-11.43824 11.04485,-16.83772 0.0164,-11.10809 -17.65621,-19.47601 -27.1252,-12.84367 -4.38125,3.06874 -4.2888,7.00155 0.33059,14.06296 2.04735,3.12966 4.165,7.75058 4.70588,10.26871 2.11854,9.86293 2.9673,10.27408 11.04388,5.34972 z"
       id="path10"
       transform="scale(0.03)"
       sodipodi:nodetypes="ssssssscssssssssssssssssssssssssssssssssssssssssssssssscsssssssssssssssssssssssssssssssss"
       inkscape:label="path10" />
    <path
       fill="#8cc5e7"
       d="m 21.467954,3.2061776 c 0.713513,1.4733591 -1.454827,1.630888 -1.34363,2.2888031 0.203861,1.1861004 0.06486,2.9467181 -0.09266,4.6795363 -0.268726,2.937452 1.927413,9.970657 -2.650193,12.796912 -0.861776,0.537451 -2.909652,0.833976 -4.929729,0.880308 0,0 -0.0093,0 -0.0093,0 0,0 -0.0093,0 -0.0093,0 C 10.413127,23.805405 8.0872587,23.50888 7.2254826,22.971429 2.6571429,20.145174 4.8532818,13.111969 4.5938224,10.174517 4.427027,8.4416988 4.2880309,6.6810811 4.5011583,5.4949807 4.6123552,4.8370656 2.4440154,4.6888031 3.157529,3.2061776 3.769112,1.9366795 5.2795367,3.0579151 5.6594595,2.6594595 7.596139,0.64864865 9.9498069,0.11119691 11.803089,0.06486486 c 0.185328,0 1.019305,0 1.019305,0 1.844015,0.0926641 4.197683,0.5930502 6.143629,2.59459464 0.379923,0.3984556 1.881081,-0.72278 2.501931,0.5467181 z M 11.432432,10.906564 c -0.0834,0.03707 -0.222393,0.945174 0.203861,0.991506 0.287259,0.0278 1.074904,0.120463 1.260232,0 0.36139,-0.231661 0.324324,-0.787645 0.120463,-0.926641 -0.342857,-0.222394 -1.491891,-0.111197 -1.584556,-0.06487 z M 9.0787645,4.1050193 C 8.1243243,3.9938224 6.5212355,4.8833977 6.2803089,6.7737452 6.0208494,8.7382239 8.3374517,10.68417 10.56139,8.7382239 11.756757,7.6911197 12.173745,4.4664093 9.0787645,4.1050193 Z m 6.4494205,0 c -3.09498,0.36139 -2.677992,3.5861004 -1.482625,4.6332046 2.223938,1.9459461 4.54054,0 4.281081,-1.9644787 -0.23166,-1.8903475 -1.834749,-2.7799228 -2.798456,-2.6687259 z"
       id="path1"
       style="display:inline"
       inkscape:label="path1" />
    <path
       fill="#b8937f"
       d="m 12.312741,8.988417 c 0.583784,-0.083398 1.983012,0.5837838 1.890348,1.371429 -0.111197,0.917374 -3.604633,1.037837 -3.789962,-0.0556 -0.111197,-0.6671814 0.416989,-1.0934362 1.899614,-1.315829 z m 7.885715,7.385328 c -0.287259,-0.0093 -0.472587,-0.389189 -0.472587,-0.620849 0,-0.416989 0.0556,-0.908108 0.36139,-1.121236 0.630115,-0.435521 1.130502,1.751352 0.111197,1.742085 z m -15.7806954,0 c -1.019305,0.0093 -0.5189189,-2.177606 0.1111969,-1.742085 0.3057915,0.213128 0.36139,0.704247 0.36139,1.121236 0,0.23166 -0.1853282,0.611583 -0.4725869,0.620849 z m 13.8440154,6.718147 c 0.185328,0.268726 0.194595,0.454054 -0.10193,0.59305 -1.130502,0.518919 -2.140541,-0.176062 -1.760618,-0.370656 0.806177,-0.407722 1.306563,-1.047105 1.862548,-0.222394 z M 6.3544401,23.184556 C 6.9104247,22.359846 7.4108108,22.999228 8.2169884,23.40695 8.5969112,23.601544 7.5868726,24.296525 6.4563707,23.777606 6.1598456,23.63861 6.169112,23.453282 6.3544401,23.184556 Z"
       id="path2"
       style="display:inline" />
    <path
       fill="#000000"
       d="M 19.735135,3.4285714 C 19.781465,3.2339768 20.26332,3.1413127 20.532046,3.4749034 20.856371,3.873359 20.059459,4.4200771 20.022394,4.1976833 19.92973,3.5953668 19.679537,3.623166 19.735135,3.4285714 Z m -14.8540539,0 C 4.9366795,3.623166 4.6864865,3.5953668 4.5938224,4.1976834 4.5567568,4.4200772 3.7598456,3.8733591 4.0841699,3.4749035 4.3436293,3.1413127 4.8254826,3.2339768 4.8810811,3.4285714 Z M 15.741313,7.9413127 c -0.583418,0 -1.056371,-0.4729532 -1.056371,-1.0563706 0,-0.5834174 0.472953,-1.0563707 1.056371,-1.0563707 0.583417,0 1.05637,0.4729533 1.05637,1.0563707 0,0.5834174 -0.472953,1.0563706 -1.05637,1.0563706 z M 15.463321,6.7644788 c 0.184237,0 0.33359,-0.1493537 0.33359,-0.3335908 0,-0.184237 -0.149353,-0.3335907 -0.33359,-0.3335907 -0.184238,0 -0.333591,0.1493537 -0.333591,0.3335907 0,0.1842371 0.149353,0.3335908 0.333591,0.3335908 z m -4.10502,2.6687258 c 0.111197,-0.4262548 0.500386,-0.5652509 0.815444,-0.5745173 0.806178,-0.018533 1.111969,0.4169884 1.139768,0.7598455 0.0556,0.5837842 -2.205405,0.7227802 -1.955212,-0.1853282 z M 8.8749035,7.9413127 c -0.5834174,0 -1.0563707,-0.4729532 -1.0563707,-1.0563706 0,-0.5834174 0.4729533,-1.0563707 1.0563707,-1.0563707 0.5834174,0 1.0563706,0.4729533 1.0563706,1.0563707 0,0.5834174 -0.4729532,1.0563706 -1.0563706,1.0563706 z M 9.1528958,6.7644788 c 0.184237,0 0.3335907,-0.1493537 0.3335907,-0.3335908 0,-0.184237 -0.1493537,-0.3335907 -0.3335907,-0.3335907 -0.1842371,0 -0.3335908,0.1493537 -0.3335908,0.3335907 0,0.1842371 0.1493537,0.3335908 0.3335908,0.3335908 z"
       id="path3"
       sodipodi:insensitive="true"
       style="display:inline"
       inkscape:label="path3" />
    <path
       style="display:inline;fill:#ffffff;stroke-width:0.532098"
       d="m 522.34192,317.34012 c -18.32975,-2.47642 -37.01908,-11.54816 -53.66864,-26.05058 -20.72905,-18.05583 -33.25724,-54.5832 -29.19223,-85.11329 4.28106,-32.15273 24.039,-54.80754 56.33758,-64.59768 13.74257,-4.16556 28.19071,-5.6118 37.85637,-3.78939 32.4671,6.12152 60.81393,32.20231 72.02833,66.27041 9.5038,28.87146 6.5818,54.59743 -8.85394,77.95236 -4.81914,7.29154 -15.48932,17.9746 -22.74537,22.77281 -8.82222,5.83387 -18.67845,9.91437 -28.53536,11.81372 -5.45395,1.05093 -17.9776,1.45082 -23.22674,0.74164 z m 10.98615,-53.42885 c 12.4978,-2.94641 23.08067,-13.81505 25.9323,-26.63258 1.21818,-5.47551 0.8635,-14.00844 -0.78362,-18.85246 -3.04419,-8.95264 -9.55019,-16.45372 -17.73731,-20.45023 -10.59827,-5.17349 -21.24631,-5.27423 -31.52164,-0.29819 -17.83139,8.6352 -24.93211,29.77261 -16.08622,47.88542 3.10521,6.35821 8.96762,12.23787 15.29467,15.33967 2.48393,1.21773 5.83318,2.55871 7.44277,2.97994 3.8714,1.01316 13.21754,1.02838 17.45905,0.0284 z"
       id="path8"
       transform="scale(0.03)" />
    <path
       style="fill:#ffffff;stroke-width:0.532098"
       d="m 399.33956,397.45476 c -11.79141,-1.06162 -13.11392,-1.28679 -14.99226,-2.55261 -2.05354,-1.38388 -3.9106,-3.98663 -4.76193,-6.67406 -0.91107,-2.87601 -1.21437,-14.81285 -0.46776,-18.40926 l 0.63328,-3.05048 1.67984,0.34589 c 11.65283,2.39939 32.71013,3.1523 46.09929,1.6483 9.39313,-1.05513 8.89535,-1.2634 10.43269,4.36492 2.92741,10.71748 -3.24671,22.88388 -12.48995,24.61204 -3.81791,0.71381 -16.58772,0.57468 -26.1332,-0.28474 z"
       id="path9"
       transform="scale(0.03)"
       inkscape:label="path9" />
    <path
       style="fill:#ffffff;stroke-width:0.161955"
       d="m 302.53258,225.1079 c -3.39505,-0.85384 -6.54145,-3.64524 -7.74805,-6.87387 -2.17657,-5.82405 0.96049,-12.36087 6.8722,-14.31989 2.8164,-0.93329 5.61742,-0.71847 8.37357,0.64222 2.54268,1.2553 4.49502,3.4722 5.50813,6.25454 0.39423,1.0827 0.43253,1.39578 0.43253,3.53622 0,2.14043 -0.0383,2.45351 -0.43253,3.53621 -1.20581,3.31158 -3.81129,5.89723 -6.97989,6.92679 -1.67307,0.54363 -4.4941,0.68303 -6.02596,0.29778 z"
       id="path11"
       transform="scale(0.03)" />
    <path
       style="fill:#ffffff;stroke-width:0.158812"
       d="m 513.7146,225.26755 c -4.49841,-0.80597 -8.05385,-4.16602 -9.0244,-8.52845 -0.41334,-1.85792 -0.2542,-4.33782 0.38988,-6.0752 2.33786,-6.30634 9.39838,-9.08876 15.4257,-6.07897 1.78255,0.89013 3.86149,2.99838 4.74161,4.80847 0.89737,1.84555 1.18884,3.07957 1.18159,5.00257 -0.007,1.85996 -0.30747,3.16834 -1.09829,4.7825 -1.38923,2.83559 -4.11678,5.07917 -7.12768,5.86295 -1.19721,0.31165 -3.39353,0.4223 -4.48841,0.22613 z"
       id="path12"
       transform="scale(0.03)" />
  </g>
</svg>
